[img]http://a.imageshack.us/img291/26/sexandthecity2moviepost.jpg[/img]
[code]
Sex And The City 2 SWESUB DVDRiP AC3 XViD - IMAGiNE
********************************************************************************************************************

Ripper ...........:IMAGiNE                                        IMDB Rating.......:3.7/10                             
Video Codec.......:XVID                                        Release Date......:30/07/10
Audio Codec.......:AC3                                         Theatre Date......:27/05/10
Audio Bitrate.....:192                                             Runtime...........:2h 20mn
Subtitles.........:SWE                                              Language..........:ENGLISH
Resolution........:720 x 400                                   IMDb URL..........:http://www.imdb.com/title/tt1261945/


DETAILS:

Video
ID                               : 0
Format                           : MPEG-4 Visual
Format profile                   : Advanced Simple@L5
Format settings, BVOP            : Yes
Format settings, QPel            : No
Format settings, GMC             : No warppoints
Format settings, Matrix          : Default (MPEG)
Muxing mode                      : Packed bitstream
Codec ID                         : XVID
Codec ID/Hint                    : XviD
Duration                         : 2h 20mn
Bit rate                         : 1 778 Kbps
Width                            : 720 pixels
Height                           : 400 pixels
Display aspect ratio             : 16/9
Frame rate                       : 25.000 fps
Resolution                       : 24 bits
Colorimetry                      : 4:2:0
Scan type                        : Progressive
Bits/(Pixel*Frame)               : 0.247
Stream size                      : 1.75 GiB (90%)
Writing library                  : XviD 1.2.1 (UTC 2008-12-04)

Audio
ID                               : 1
Format                           : AC-3
Format/Info                      : Audio Coding 3
Codec ID                         : 2000
Duration                         : 2h 20mn
Bit rate mode                    : Constant
Bit rate                         : 192 Kbps
Channel(s)                       : 2 channels
Channel positions                : L R
Sampling rate                    : 48.0 KHz
Stream size                      : 193 MiB (10%)
Alignment                        : Aligned on interleaves
Interleave, duration             : 40 ms (1.00 video frame)
Interleave, preload duration     : 512 ms



NOTES:

IMAGiNE bringing you another release.....Sex and the City 2

First off source used was "Sex And The City 2 2010 SWESUB PAL DVDR iNTERNAL-KAFFEREP" so thanks alot 
Work done,just a quick script made to rip the video,resizing,white balance,brightness,contrast,sharpeness etc....
then a case of dropping it into vdub and then we used the RGB EQ just to slight tweak it a touch more.
Now the source had hardcoded subtitles ....swedish,we've decided to keep them their because a blur would be too big
and a crop would cut alot of the picture off in our honest opinion.
Also sorry we're late on this .....we've all been tied up in our own personal lifes with work etc so running late on this and 
toy story 3,but hey ho ....if you want grab it.
Oh we also decided to do it slightly bigger than normal because we want to keep the AC3 audio track and still keep a decent 
size bitrate for the video.

Anyway enjoy these horses in dresses 
[/code]
Screens:
[img]http://a.imageshack.us/img717/5060/vlcsnap23487.png[/img]
[img]http://a.imageshack.us/img842/2649/vlcsnap29351.png[/img]
[img]http://a.imageshack.us/img293/3999/vlcsnap25044.png[/img]
[img]http://a.imageshack.us/img843/3671/vlcsnap39228.png[/img]
[img]http://a.imageshack.us/img836/3892/vlcsnap24595.png[/img]